<?xml version="1.0" encoding="utf-8"?>
<!-- Generator: Adobe Illustrator 24.1.2, SVG Export Plug-In . SVG Version: 6.00 Build 0)  -->
<svg version="1.1" id="Layer_1" xmlns="http://www.w3.org/2000/svg" xmlns:xlink="http://www.w3.org/1999/xlink" x="0px" y="0px"
	 viewBox="0 0 60 60" style="enable-background:new 0 0 60 60;" xml:space="preserve">
<style type="text/css">
	.st0{fill:#C1D82F;}
	.st1{fill:#566C11;}
</style>
<g id="Group_4" transform="translate(-2 -159)">
	<path id="Path" class="st0" d="M32,219c16.6,0,30-13.4,30-30s-13.4-30-30-30S2,172.4,2,189S15.4,219,32,219"/>
	<path id="Shape" class="st1" d="M17,205.5l0.8-0.9c-0.3-0.3-0.6-0.7-0.7-1.1v-0.2l0.1-0.1c0.2-0.2,0.4-0.4,0.5-0.6
		c0-0.1-0.1-0.2-0.1-0.3l-0.1-0.2l0.1-0.1l1-1.2c0-0.1-0.1-0.2-0.1-0.3l-0.1-0.2l0.1-0.1l8.2-9.8l-0.2-0.2L27,190l14.8-17.6l0.2-0.2
		l0.2,0.1c0,0,0.1,0,0.1,0.1c0.1-0.1,0.2-0.2,0.3-0.3c0.3-0.2,0.8,0,1.1,0.1c1.2,0.5,2,1.6,2.3,2.8c0,0.2-0.1,0.5-0.3,0.6l0,0
		l0.2,0.2l-0.2,0.2L31,193.6l-0.2,0.2c-0.1,0-0.1-0.1-0.2-0.1c-2.7,3.2-5.5,6.4-8.2,9.7l-0.1,0.1h-0.1c-0.1,0-0.3,0.1-0.4,0.1
		l-1.2,1.4l-0.1,0.1h-0.2c-0.1,0-0.2,0-0.3-0.1c-0.5,0.6-0.7,0.8-1,0.6s-0.6-0.4-0.8-0.6l-0.8,0.9L17,205.5z"/>
	<path id="Rectangle_1" class="st0" d="M30.8,187.1l4.9-5.9c0.2-0.3,0.6-0.3,0.9-0.1l1.4,1.2c0.3,0.2,0.3,0.6,0.1,0.9l-4.9,5.9
		c-0.2,0.3-0.6,0.3-0.9,0.1l-1.4-1.2C30.6,187.8,30.6,187.4,30.8,187.1z"/>
</g>
</svg>
